<?xml version="1.0" encoding="utf-8"?>
<!-- Generator: Adobe Illustrator 25.4.1, SVG Export Plug-In . SVG Version: 6.00 Build 0)  -->
<svg version="1.1" id="Layer_1" xmlns="http://www.w3.org/2000/svg" xmlns:xlink="http://www.w3.org/1999/xlink" x="0px" y="0px"
	 viewBox="0 0 105 60" style="enable-background:new 0 0 105 60;" xml:space="preserve">
<style type="text/css">
	.st0{fill:#1D1D1B;}
</style>
<g>
	<g>
		<path class="st0" d="M65.6,45.6c-0.4-0.7-0.6-1.6-0.7-2.7v-3.8c0-1.6,0-3.2-0.1-4.8c0-0.9-0.2-1.7-0.6-2.4
			c-0.4-0.7-0.8-1.4-1.4-1.8c-0.6-0.5-1.2-0.9-2-1.2c-0.7-0.3-1.5-0.5-2.3-0.5c-0.8,0-1.6,0.1-2.4,0.2c0.9,0.2,1.7,0.8,2.2,1.8
			c0.6,1,0.9,1.9,0.9,2.9c0,0.4,0,1.1,0,2.2c0,1.1,0,1.8,0,2.2c-1.7,0-3.1,0.1-4.3,0.3c-1.2,0.2-2.2,0.6-3,1.2
			c-0.7,0.6-1.2,1.3-1.4,2c-0.2,0.8-0.2,1.5,0,2.2c0.2,0.7,0.7,1.2,1.3,1.7c0.6,0.5,1.4,0.7,2.3,0.7c2.2,0.2,4-0.6,5.2-2.4v1.9
			c1,0,1.9,0.1,2.8,0.4c0.8,0.2,1.5,0.5,1.9,0.8c0.5,0.3,1,0.5,1.7,0.8s1.3,0.3,2.1,0.3v0c0-0.3-0.2-0.6-0.5-0.8
			C66.4,46.6,65.9,46.2,65.6,45.6z M59.2,41.1c0,0.5-0.1,0.9-0.2,1.2c-0.1,0.3-0.2,0.6-0.3,0.8c-0.1,0.2-0.3,0.3-0.4,0.4
			c-0.2,0.1-0.3,0.1-0.5,0.1c-0.2,0-0.3-0.1-0.5-0.2c-0.4-0.3-0.6-0.7-0.8-1.2c-0.1-0.6-0.1-1.2,0.1-1.9c0.2-0.5,0.6-1,1-1.4
			c0.4-0.4,0.9-0.6,1.5-0.7C59.3,39.8,59.3,40.8,59.2,41.1z"/>
		<path class="st0" d="M82.9,32c-0.8-1.6-1.9-2.5-3.3-2.6c-0.9-0.1-1.9,0.3-2.8,1c-0.9,0.8-1.7,2-2.3,3.6c0-0.5,0-1.2,0-2.1
			c0-0.9,0-1.5,0-2c1.1-0.1,2.1-0.4,2.9-1c0.8-0.5,1.5-1.3,1.9-2.3c0.5-1,0.6-1.9,0.5-2.8c-0.1-0.9-0.4-1.6-0.8-2.2
			c-0.4-0.6-1-1.1-1.7-1.4c-0.5-0.2-1-0.4-1.6-0.4c-0.6,0-1,0.1-1.5,0.2c-0.4,0.2-0.8,0.4-1.2,0.7c-0.4,0.3-0.6,0.6-0.8,1
			c-0.2,0.4-0.3,0.8-0.2,1.2c0,0.4,0.2,0.9,0.5,1.3c0.3,0.5,0.7,0.9,1.3,1.3c0.5,0.4,0.8,0.8,0.8,1.3c0,0.5-0.2,0.9-0.6,1.3
			c-0.4,0.4-0.9,0.6-1.5,0.7c-0.8,0-1.5,0-2.3-0.1c-0.8-0.1-1.4-0.3-1.9-0.4c-0.5-0.2-1.3-0.4-2.3-0.8c-1.3-0.5-2.7-0.8-4-1
			c-1.4-0.2-2.8-0.1-4.2,0.1c-1.5,0.2-2.7,0.7-3.9,1.4c-1.4,0.9-2.4,2-2.9,3.4c-0.5,1.4-0.4,2.7,0.3,3.9c0.2,0.4,0.5,0.7,0.8,0.9
			c0.3,0.3,0.6,0.5,1,0.6c0.3,0.1,0.7,0.2,1.1,0.3c0.4,0,0.7,0,1,0c0.3-0.1,0.7-0.2,1-0.3c0.5-0.2,0.9-0.6,1.3-1
			c0.3-0.5,0.5-1,0.5-1.5c0-0.1,0-0.2,0-0.3c0-0.8-0.3-1.6-0.9-2.2c-0.6-0.6-1.3-0.9-2.2-0.9c-0.6,0-1.2,0.2-1.7,0.5
			c-0.1-0.5,0-0.9,0.2-1.4c0.2-0.5,0.5-0.9,1-1.2c1.1-0.9,2.6-1.4,4.3-1.5c1.7-0.1,3.5,0.2,5.2,0.9c1.4,0.6,2.6,1.5,3.5,2.7
			c0.9,1.2,1.3,2.6,1.3,4.4c0,0.5,0,1.2,0,2.3c0,1.1,0,1.9,0,2.3c-0.2,2.5-1,4-2.3,4.6c-0.3,0.1-0.5,0.4-0.5,0.7v0
			c3-0.6,5.9-0.6,8.6,0c2.2,0,4.1-0.5,5.6-1.5c2.1-1.3,3.3-3.3,3.7-5.9C84.2,35.8,83.9,33.8,82.9,32z M76.7,41.9
			c-0.6,1.5-1.3,2.4-2.1,2.9c0-0.6,0-1.5,0-2.8c0-1.3,0-2.4,0-3.1c0-0.2,0-0.7,0.1-1.6c0.1-0.9,0.2-1.5,0.3-1.8
			c0.1-0.5,0.2-0.9,0.4-1.2c0.4-0.7,0.8-0.7,1.3-0.1c0.6,0.7,0.9,1.9,0.9,3.4C77.5,38.9,77.3,40.4,76.7,41.9z"/>
		<g>
			<path class="st0" d="M76.9,10.3c-0.2,1.2-2.1,2.4-2.5,2.6c-0.1,0-0.1,0.1-0.2,0.1l-1.6,1.1c-1.1,0.7-1.7,2-1.5,3.3l0.4,2.4
				c0.3,1.7-0.7,3.3-2.3,3.9c-2.1,0.8-4.8,0.2-4.8,0.2c-12.3-2.5-10.9-12.8-10.9-12.8c-5.8,4.9-7,12.3-7,12.3
				c-1,2.8-0.5,7.4,0.3,11.3c0,0.1,0,0.2,0.1,0.4c0.3,1.5,0.6,2.8,0.9,3.8c0,0.1,0,0.2,0.1,0.3c0.5,1.8,0.5,3.7,0.1,5.5
				c-0.5,2.1-1.4,3.2-2.3,3.7c-0.7-1.4-1.4-2.9-2.2-4.3c1.5-3.1,0.1-8.6,0.1-8.6c0,0,0,0,0,0c-0.2-1.4-0.4-2.7-0.4-4
				c0-1.1,0-2.2,0.1-3.2c0.7-9.2,5.4-15.1,5.4-15.1c7.9-10,18.3-9.5,18.3-9.5C76.5,4.2,77.1,8.9,76.9,10.3z"/>
		</g>
		<g>
			<path class="st0" d="M46.8,41.1c-0.6,2.5-1.7,3.7-2.7,4.3c-0.8-1.7-1.7-3.4-2.6-5c-3.8-6.9-8.2-13.4-12.3-19
				c-1.4-1.9-2.7-3.6-4-5.2c-0.6-0.7-1.1-1.4-1.6-2c-0.4-1.3-0.7-2.4-1.1-3.3c-0.2-0.7-0.4-1.4-0.6-2.2c-0.3-1.5-0.3-3.1-0.1-4.7
				c0.2-1,0.4-1.8,0.7-2.4c0.8,0.9,2,2.3,3.5,4c0.3,0.4,0.7,0.8,1,1.2c1.8,2.2,3.9,4.8,6.2,7.8c2.9,3.8,5.5,7.4,7.9,11.1
				c2,3,3.8,5.9,5.4,8.7c0,0.1,0.1,0.2,0.1,0.3C47.2,36.7,47.3,38.9,46.8,41.1z"/>
		</g>
		<g>
			<path class="st0" d="M22.1,42.7c0,0-1.6-9.3-13-8.2c0,0-2.5,0.3-4.1,1.5c-1.2,1-1.6,2.7-0.9,4l1,2c0.5,1.1,0.4,2.3-0.4,3.3
				l-1.1,1.4c0,0-0.1,0.1-0.1,0.1c-0.3,0.3-1.5,1.8-1.4,3c0.1,1.2,2,5.2,10.5,3c0,0,7.5-2,12-10.3l-1.3-1.9
				C22.9,41.3,22.5,42,22.1,42.7z"/>
			<path class="st0" d="M29.3,24.1c0,9.3-3.4,16.1-4.8,18.5c-0.3,0.6-0.5,0.9-0.5,0.9c-0.9,1.3-1.8,2.5-2.8,3.6l-1.2-3
				c0.6-0.8,1.2-1.7,1.7-2.5c3.3-5.6,3.8-11.1,3.8-11.1c1-3.6-0.1-9.4-1.4-14c0-0.1-0.1-0.3-0.1-0.4c-0.2-0.6-0.3-1.2-0.5-1.7
				c-0.4-1.3-0.7-2.4-1.1-3.3c-0.2-0.7-0.4-1.4-0.6-2.2c-0.3-1.5-0.3-3.1-0.1-4.7c0.2-1,0.4-1.8,0.7-2.4c0.8,0.9,2,2.3,3.5,4
				c0.3,0.4,0.7,0.8,1,1.2c-0.2,3.1,0.6,6.6,1,7.8c0.1,0.3,0.1,0.5,0.1,0.5c0,0,0,0,0,0.1c0.5,2.2,0.8,4.2,1,6.2
				C29.3,22.3,29.3,23.2,29.3,24.1z"/>
		</g>
		<path class="st0" d="M101.2,45.4c-0.4-0.7-0.6-1.6-0.7-2.7v-3.8c0-1.6,0-21-0.1-22.6c0-0.9-0.2-1.7-0.6-2.4
			c-0.4-0.7-0.8-1.4-1.4-1.8c-0.6-0.5-1.2-0.9-2-1.2c-0.7-0.3-1.5-0.5-2.3-0.5c-0.8,0-1.6,0.1-2.4,0.2c0.9,0.2,1.7,0.8,2.2,1.8
			c0.6,1,0.9,1.9,0.9,2.9c0,0.4,0,1.1,0,2.2c0,1.1,0,1.8,0,2.2v-3.6v3.6v18.4v5.2c0,0,0,0,0,0v1.9"/>
		<g>
			<path class="st0" d="M88.6,33.6l-2.7-3.3c0-0.1-0.1-0.1-0.1-0.2v7.9v5.2c0,0,0,0,0,0v1.9l6.3,0.2c-0.4-0.7-0.6-1.6-0.7-2.7v-3.8
				c0-0.9,0-2.9,0-8.7c0,0,0,0-0.1,0.1L88.6,33.6z"/>
			<path class="st0" d="M91.2,27c-0.6-0.3-1.1-0.8-1.5-1.5l-1.1-2l-1.1,2c-0.3,0.6-0.8,1.1-1.5,1.5l-2,1.1l1.8,1l0.3,0.1
				c0.2,0.1,0.4,0.3,0.6,0.4c0.3,0.3,0.6,0.6,0.8,1l1.1,2l1.1-2c0.2-0.4,0.5-0.7,0.8-1c0.2-0.2,0.4-0.3,0.6-0.4l0.2-0.1l1.9-1
				L91.2,27z"/>
		</g>
		<g>
			<g>
				<path class="st0" d="M23.7,51.9h3.3v0.7h-2.2v2.1h2.1v0.7h-2.1v3.1h-1.1V51.9z"/>
				<path class="st0" d="M39.2,57.7c0,0.3,0,0.8,0,0.9h-1c0-0.1-0.1-0.3-0.1-0.4c-0.2,0.4-0.6,0.5-1.1,0.5c-1,0-1.4-0.7-1.4-1.5
					v-0.1c0-1.2,1-1.6,2.3-1.6c0.1,0,0.2,0,0.3,0v-0.8c0-0.4-0.1-0.7-0.6-0.7c-0.5,0-0.6,0.3-0.6,0.7v0.1h-1.1v-0.1
					c0-0.7,0.4-1.3,1.7-1.3c1.2,0,1.7,0.6,1.7,1.3V57.7z M38.1,56.2c-0.1,0-0.2,0-0.3,0c-0.7,0-1.2,0.2-1.2,0.9v0.1
					c0,0.4,0.2,0.8,0.7,0.8c0.6,0,0.8-0.3,0.8-1.1V56.2z"/>
				<path class="st0" d="M49.3,57.1v0.2c0,0.4,0.2,0.7,0.7,0.7c0.5,0,0.7-0.2,0.7-0.7c0-0.4-0.2-0.7-1-1.1c-0.9-0.5-1.4-0.8-1.4-1.5
					c0-0.8,0.5-1.3,1.7-1.3c1.3,0,1.7,0.6,1.7,1.4V55h-1.1v-0.3c0-0.4-0.2-0.6-0.6-0.6c-0.4,0-0.6,0.2-0.6,0.6
					c0,0.4,0.2,0.5,0.8,0.9c1.1,0.5,1.5,0.9,1.5,1.7c0,0.9-0.6,1.4-1.8,1.4c-1.4,0-1.8-0.7-1.8-1.4v-0.2H49.3z"/>
				<path class="st0" d="M62,51.6V54c0.2-0.3,0.6-0.5,1.3-0.5c1,0,1.4,0.6,1.4,1.3v3.9h-1.1v-3.7c0-0.4-0.1-0.8-0.7-0.8
					c-0.7,0-0.9,0.4-0.9,1.1v3.4h-1.1v-7H62z"/>
				<path class="st0" d="M74.1,53.5h1.1v5.1h-1.1V53.5z M74.1,51.6h1.1v1.1h-1.1V51.6z"/>
				<path class="st0" d="M88.1,55v2.1c0,1.1-0.7,1.6-1.9,1.6c-1.2,0-1.9-0.5-1.9-1.6V55c0-1,0.7-1.5,1.9-1.5
					C87.4,53.4,88.1,54,88.1,55z M85.4,55v2.2c0,0.5,0.2,0.9,0.8,0.9c0.5,0,0.8-0.3,0.8-0.9V55c0-0.5-0.2-0.8-0.8-0.8
					C85.7,54.1,85.4,54.4,85.4,55z"/>
				<path class="st0" d="M97.3,55.1c0-1,0-1.3,0-1.6h1c0,0.1,0,0.3,0,0.5c0.2-0.4,0.6-0.6,1.3-0.6c0.8,0,1.4,0.3,1.4,1.3v3.9H100
					v-3.8c0-0.5-0.2-0.7-0.7-0.7c-0.6,0-0.9,0.2-0.9,1.1v3.4h-1.1V55.1z"/>
			</g>
		</g>
	</g>
</g>
</svg>
